<svg width="255" height="76" fill="none" xmlns="http://www.w3.org/2000/svg"><path d="M212.194 64.55h-1.422v1.71h1.422v8.525h2.189V64.55h-2.189Zm.711-1.438c.339 0 .665-.136.905-.379a1.3 1.3 0 0 0 .374-.914 1.3 1.3 0 0 0-.374-.915 1.273 1.273 0 0 0-.905-.38 1.294 1.294 0 0 0-1.009.375 1.445 1.445 0 0 0-.327.92c-.012.342.104.676.327.934a1.297 1.297 0 0 0 1.009.36Zm-70.102 1.438h-1.734v10.235h2.189v-6.066a2.418 2.418 0 0 1 .654-1.782 2.3 2.3 0 0 1 1.735-.677 2.143 2.143 0 0 1 1.649.647c.412.475.626 1.094.597 1.725v6.153h2.189v-5.85a5.642 5.642 0 0 0-.91-3.494 3.367 3.367 0 0 0-1.279-.944 3.334 3.334 0 0 0-1.564-.25h-.099a3.608 3.608 0 0 0-2.033.533 3.192 3.192 0 0 0-1.237 1.595c0 .202-.142.417-.199.647l.042-2.472Zm-5.061-3.623h-2.246v13.858h2.246V60.927Zm-17.884-18.5c.697-1.193.91-3.033.483-2.947a58.023 58.023 0 0 1-7.307 4.313 76.83 76.83 0 0 1-11.714 3.723c-7.109 1.437-9.696 1.02-9.696 1.02a8.766 8.766 0 0 1 2.047-2.875 1.72 1.72 0 0 1 2.047.087 3.63 3.63 0 0 0-.27-3.12 10.455 10.455 0 0 0-3.298-.834 9.847 9.847 0 0 0-2.772-.172c-.569.13-6.952 3.68-9.426 3.867a26.893 26.893 0 0 1-6.781-1.064c-7.108-2.012-14.629-6.196-20.5-9.703a123.04 123.04 0 0 1-21.055-16C21.238 8.833 18.068.784 17.4.396c-.427-.273-1.038.388-.74 3.12a20.842 20.842 0 0 0 4.82 11.111 40.999 40.999 0 0 0 2.843 3.205C12.111 9.667 10.817 1.316 9.637.08c-.554-.575-1.563 2.07-.682 5.75.881 3.68 2.843 8.265 9.852 13.713C4.591 12.6 3.17 6.605 2.003 6.447 1.307 6.303.27 9.322 1.648 12.11 3.34 15.59 8.3 19.887 15.11 22.705 7.164 20.908.653 17.04.127 17.515-.4 17.99.78 20.764 2.43 22.26c1.137 1.02 5.174 3.436 11.686 5.06-6.682-.259-10.037-1.092-9.81-.216a6.346 6.346 0 0 0 2.517 2.875 18.844 18.844 0 0 0 8.032 2.113c-1.18.13-5.303.618-5.346 1.107-.042.489.313.877.868 1.438 24.978 24.164 42.265 29.44 42.265 29.44-5.516 2.199-12.596 3.349-12.795 4.14-.199.79 2.844 2.803 6.085 3.823a25.478 25.478 0 0 0 9.81 1.136c1.094-.216 4.122-.475 12.07-5.75a46.46 46.46 0 0 0 16.675-3.306 111.248 111.248 0 0 0 17.416-9.172c1.421-.172 3.824.705 4.648.49.825-.216.569-.49-.128-1.15a17.459 17.459 0 0 0-1.421-1.309s.142-.086.185-.144a13.044 13.044 0 0 0 6.113.79c1.421-.129 2.615-1.537 2.388-1.58a35.498 35.498 0 0 1-5.687-1.136l.214-.13c4.606 0 6.952-1.106 8.345-2.155 1.165-.877 1.308-1.582 1.038-1.668-.271-.086-1.82.431-4.649.704 2.09-1.236 5.601-3.076 6.866-5.232h.043Zm29.712 12.937 3.228-13.857h-2.218l-2.573 11.902h-.541l-2.658-11.356h-2.602l-2.331 11.356h-.555l-2.843-11.902h-2.317l3.582 13.857h3.654l2.175-10.062 2.374 10.062h3.625Zm7.493-12.017a1.274 1.274 0 0 0 .327-.92 1.242 1.242 0 0 0-.375-.968 1.205 1.205 0 0 0-.976-.326 1.21 1.21 0 0 0-.995.374 1.267 1.267 0 0 0-.327.92 1.256 1.256 0 0 0 .327.92 1.264 1.264 0 0 0 .995.36 1.281 1.281 0 0 0 1.024-.36Zm-1.735 12.017h2.204V45.13h-3.682v1.711h1.421l.057 8.524Zm2.005 19.55h1.521v-1.926h-1.649a1.548 1.548 0 0 1-1.18-.431 1.658 1.658 0 0 1-.427-1.222v-5.103h3.298v-1.653h-3.298v-2.976h-2.075v2.976h-1.678v1.653h1.678v4.916a4.817 4.817 0 0 0 .44 2.257 2.43 2.43 0 0 0 1.294 1.178c.68.242 1.398.355 2.118.331h-.042Zm3.71-19.55h2.204V41.507h-3.54v1.71h1.336v12.147Zm6.852 12.32c.13.323.221.66.271 1.006h-5.602c.04-.298.122-.588.242-.863.184-.51.522-.947.967-1.25a3.156 3.156 0 0 1 3.184 0c.422.283.749.69.938 1.164v-.058Zm.228-2.674a4.876 4.876 0 0 0-2.715-.719 5.027 5.027 0 0 0-2.204.446 4.56 4.56 0 0 0-1.564 1.193 5.335 5.335 0 0 0-.938 1.696 6.385 6.385 0 0 0-.299 1.94v.36c-.001.654.1 1.304.299 1.926.207.62.525 1.194.938 1.696.437.516.98.929 1.592 1.208a5.382 5.382 0 0 0 2.289.445 5.248 5.248 0 0 0 2.175-.416 4.055 4.055 0 0 0 1.585-1.202 4.11 4.11 0 0 0 .832-1.817h-2.047c-.124.459-.419.85-.824 1.092a2.936 2.936 0 0 1-1.721.475 2.975 2.975 0 0 1-1.734-.475 2.638 2.638 0 0 1-.981-1.264 4.362 4.362 0 0 1-.313-1.337h7.805v-.892a5.875 5.875 0 0 0-.54-2.486 4.692 4.692 0 0 0-1.635-1.87Zm5.857-14.375c.015.603-.132 1.2-.426 1.725a2.95 2.95 0 0 1-1.109 1.107 3.031 3.031 0 0 1-1.521.373 3.06 3.06 0 0 1-1.621-.416 2.965 2.965 0 0 1-1.109-1.222 4.114 4.114 0 0 1-.412-1.883 4.36 4.36 0 0 1 .398-1.869 3.066 3.066 0 0 1 1.095-1.236 2.915 2.915 0 0 1 1.62-.446 3.168 3.168 0 0 1 1.521.36c.462.239.851.602 1.123 1.049.31.493.464 1.07.441 1.653v.805Zm.37 4.787h1.748V41.564h-2.203v5.161a3.47 3.47 0 0 0-1.422-1.351 4.324 4.324 0 0 0-2.09-.503 4.681 4.681 0 0 0-1.976.402 4.424 4.424 0 0 0-1.521 1.136 5.207 5.207 0 0 0-.995 1.682 6.04 6.04 0 0 0-.341 2.055v.36a5.816 5.816 0 0 0 .355 2.07 5.099 5.099 0 0 0 1.024 1.667c.433.48.961.862 1.549 1.121a4.75 4.75 0 0 0 1.991.403 4.497 4.497 0 0 0 2.09-.503 3.915 3.915 0 0 0 1.563-1.567c.07-.12.132-.245.185-.374l.043 2.099Zm4.123 9.099h-.356a3.53 3.53 0 0 0-1.542.225 3.563 3.563 0 0 0-1.301.868 4.026 4.026 0 0 0-.882 2.17v-3.148h-1.748v10.235h2.203v-5.434a2.997 2.997 0 0 1 .754-2.2 2.985 2.985 0 0 1 2.189-.762h.668l.015-1.954Zm2.104-15.209c.055-.298.136-.592.241-.876.194-.508.537-.944.981-1.251a3.118 3.118 0 0 1 3.185 0c.42.279.747.68.938 1.15.133.326.22.67.256 1.02l-5.601-.042Zm0 1.438h7.804v-.891a5.606 5.606 0 0 0-.554-2.473 4.46 4.46 0 0 0-1.621-1.869 4.776 4.776 0 0 0-2.729-.718 5.086 5.086 0 0 0-2.204.445 4.35 4.35 0 0 0-1.564 1.194 5.115 5.115 0 0 0-.924 1.681c-.21.63-.316 1.29-.312 1.955v.36a5.946 5.946 0 0 0 .312 1.926c.2.615.513 1.186.924 1.682.436.517.98.93 1.593 1.207a5.418 5.418 0 0 0 2.289.46 5.49 5.49 0 0 0 2.175-.417 4.27 4.27 0 0 0 1.592-1.193 4.18 4.18 0 0 0 .824-1.825h-2.033a1.921 1.921 0 0 1-.824 1.092 3.48 3.48 0 0 1-3.455 0 2.698 2.698 0 0 1-.995-1.28 4.825 4.825 0 0 1-.298-1.336Zm6.809 24.063h2.19v-5.85a5.557 5.557 0 0 0-.924-3.493 3.312 3.312 0 0 0-1.277-.951 3.278 3.278 0 0 0-1.567-.242h-.028a3.607 3.607 0 0 0-2.033.531 3.203 3.203 0 0 0-1.237 1.596 6.997 6.997 0 0 0-.199.647v-2.472h-1.734v10.234h2.189v-6.066a2.43 2.43 0 0 1 .654-1.782 2.273 2.273 0 0 1 1.72-.676 2.169 2.169 0 0 1 1.663.647c.413.475.627 1.093.598 1.725l-.015 6.152Zm8.53-27.844h.683v-1.94h-.356a3.586 3.586 0 0 0-2.843 1.093 3.921 3.921 0 0 0-.882 2.17v-3.148h-1.748v10.235h2.118v-5.434a2.709 2.709 0 0 1 .774-2.19 2.645 2.645 0 0 1 2.169-.772l.085-.014Zm2.417 24.05c-.001.504-.133 1-.384 1.437a1.965 1.965 0 0 1-.881.733c-.352.146-.729.22-1.109.216a2.229 2.229 0 0 1-1.507-.46 1.583 1.583 0 0 1-.526-1.25 1.637 1.637 0 0 1 .526-1.266 2.16 2.16 0 0 1 1.507-.474h2.374v1.063Zm.085-6.167a7.132 7.132 0 0 0-2.544-.389H193.812l-.895.072v1.912h3.483a1.883 1.883 0 0 1 1.421.489 2.008 2.008 0 0 1 .498 1.438v.186h-2.317a6.303 6.303 0 0 0-2.275.36 3.148 3.148 0 0 0-1.422 1.078 3.113 3.113 0 0 0-.512 1.825c-.018.629.134 1.25.441 1.797.302.502.748.898 1.28 1.136.608.27 1.268.403 1.933.388a3.863 3.863 0 0 0 1.806-.388 2.853 2.853 0 0 0 1.165-1.121c.133-.232.237-.478.313-.733v1.983h1.734v-6.397a4.54 4.54 0 0 0-.497-2.314 2.849 2.849 0 0 0-1.507-1.265l-.043-.057Zm6.91-9.416h2.189v-5.951a5.698 5.698 0 0 0-.91-3.493 3.346 3.346 0 0 0-1.278-.947 3.303 3.303 0 0 0-1.565-.246h-.086a3.624 3.624 0 0 0-2.047.546 3.22 3.22 0 0 0-1.237 1.581c-.078.21-.14.427-.184.647v-2.472h-1.749v10.235h2.189V49.34a2.506 2.506 0 0 1 .654-1.797 2.362 2.362 0 0 1 1.735-.675 2.098 2.098 0 0 1 1.649.661c.411.47.625 1.084.597 1.71l.043 6.196Zm2.345 19.55h1.521V73.06h-1.691a1.604 1.604 0 0 1-1.195-.431 1.71 1.71 0 0 1-.412-1.222v-5.103h3.298V64.65h-3.298v-2.975h-2.09v2.975h-1.663v1.653h1.663v4.917c-.03.777.121 1.55.441 2.257.277.542.743.962 1.308 1.178a5.713 5.713 0 0 0 2.118.33Zm4.18-25.66c.055-.298.136-.591.242-.876a2.68 2.68 0 0 1 .981-1.25 2.815 2.815 0 0 1 1.634-.46 2.818 2.818 0 0 1 1.55.416c.421.279.748.68.938 1.15.131.328.222.67.27 1.02h-5.615Zm0 1.438h7.805v-.89a5.81 5.81 0 0 0-.54-2.473 4.595 4.595 0 0 0-1.635-1.87 4.768 4.768 0 0 0-2.716-.718 5.024 5.024 0 0 0-2.203.446 4.262 4.262 0 0 0-1.578 1.193c-.406.5-.719 1.07-.924 1.682a6.454 6.454 0 0 0-.313 1.955v.359c.004.655.11 1.305.313 1.926a5.37 5.37 0 0 0 .924 1.682c.438.52.987.934 1.606 1.208.716.319 1.492.476 2.275.46a5.392 5.392 0 0 0 2.175-.417 4.033 4.033 0 0 0 1.596-1.197 4.092 4.092 0 0 0 .835-1.822h-2.047a1.923 1.923 0 0 1-.825 1.093 3.48 3.48 0 0 1-3.454 0 2.7 2.7 0 0 1-.996-1.28 4.825 4.825 0 0 1-.298-1.337Zm8.629 15.827a3.527 3.527 0 0 1 3.483 0c.483.308.872.746 1.123 1.265a3.92 3.92 0 0 1 .399 1.797 4.016 4.016 0 0 1-.384 1.782c-.24.527-.632.968-1.123 1.265a3.144 3.144 0 0 1-1.763.475 3.198 3.198 0 0 1-1.763-.475 2.984 2.984 0 0 1-1.109-1.265 4.002 4.002 0 0 1-.384-1.782 3.919 3.919 0 0 1 .398-1.797c.247-.522.637-.96 1.123-1.265Zm1.735-2.4a5.627 5.627 0 0 0-2.303.445 5.053 5.053 0 0 0-1.721 1.179 5.181 5.181 0 0 0-1.066 1.696 5.46 5.46 0 0 0-.355 1.955v.388a5.381 5.381 0 0 0 .355 1.94 4.925 4.925 0 0 0 2.758 2.876 6.36 6.36 0 0 0 4.677 0 4.91 4.91 0 0 0 1.706-1.18 5.194 5.194 0 0 0 1.052-1.68 5.382 5.382 0 0 0 .356-1.942v-.402a5.192 5.192 0 0 0-1.422-3.651 5.187 5.187 0 0 0-1.72-1.179 5.548 5.548 0 0 0-2.303-.446h-.014Zm1.564-15.44a.991.991 0 0 1-.384-.833 1.168 1.168 0 0 1 .497-.963c.419-.283.919-.42 1.422-.388a2.452 2.452 0 0 1 1.507.402 1.432 1.432 0 0 1 .54.992h2.005a2.916 2.916 0 0 0-.284-1.325 2.87 2.87 0 0 0-.854-1.047 4.904 4.904 0 0 0-2.914-.805 5.053 5.053 0 0 0-2.047.389 3.162 3.162 0 0 0-1.422 1.078 2.895 2.895 0 0 0-.497 1.725 2.547 2.547 0 0 0 .909 2.055 4.507 4.507 0 0 0 2.46.92l.995.1a3.176 3.176 0 0 1 1.493.446 1.045 1.045 0 0 1 .44.906 1.224 1.224 0 0 1-.597 1.035 2.816 2.816 0 0 1-1.649.417 2.734 2.734 0 0 1-1.791-.474 1.545 1.545 0 0 1-.583-1.035h-2.019c.003.466.112.925.319 1.342.207.416.507.778.876 1.058.93.64 2.046.95 3.17.877a5.7 5.7 0 0 0 2.246-.402 3.544 3.544 0 0 0 1.507-1.15 2.79 2.79 0 0 0 .54-1.725 2.53 2.53 0 0 0-.995-2.142 5.347 5.347 0 0 0-2.715-.949l-.995-.1a2.43 2.43 0 0 1-1.209-.403h.029Zm7.762 15.813h-1.692V74.8h2.189v-6.066a2.418 2.418 0 0 1 .654-1.782 2.266 2.266 0 0 1 1.721-.676 2.164 2.164 0 0 1 1.663.647c.412.475.626 1.093.597 1.725v6.152h2.189v-5.85a5.64 5.64 0 0 0-.924-3.494 3.316 3.316 0 0 0-1.276-.95 3.279 3.279 0 0 0-1.567-.243h-.1a3.611 3.611 0 0 0-2.033.532 3.195 3.195 0 0 0-1.236 1.596 6.704 6.704 0 0 0-.199.647l.014-2.473Zm2.388-15.812a.988.988 0 0 1-.384-.834 1.164 1.164 0 0 1 .498-.963c.42-.281.919-.417 1.422-.388a2.45 2.45 0 0 1 1.506.402 1.314 1.314 0 0 1 .541.992h2.004a2.903 2.903 0 0 0-.284-1.325 2.868 2.868 0 0 0-.853-1.047 4.864 4.864 0 0 0-2.914-.805 5.115 5.115 0 0 0-2.048.389 3.045 3.045 0 0 0-1.421 1.078 2.894 2.894 0 0 0-.512 1.725 2.547 2.547 0 0 0 .91 2.055 4.544 4.544 0 0 0 2.459.92l.995.1c.527.02 1.04.174 1.493.446a1.057 1.057 0 0 1 .441.906 1.226 1.226 0 0 1-.597 1.035 2.82 2.82 0 0 1-1.649.417 2.663 2.663 0 0 1-1.777-.474 1.434 1.434 0 0 1-.583-1.035h-1.905c.002.466.111.925.318 1.342.207.416.507.778.876 1.058a5.06 5.06 0 0 0 3.184.877 5.626 5.626 0 0 0 2.232-.402 3.544 3.544 0 0 0 1.507-1.15c.37-.497.565-1.104.555-1.725a2.573 2.573 0 0 0-.243-1.198 2.537 2.537 0 0 0-.767-.944 5.347 5.347 0 0 0-2.715-.949l-.981-.1a2.44 2.44 0 0 1-1.223-.403h-.085Zm13.676 22.209c0 .505-.133 1-.383 1.438a1.943 1.943 0 0 1-.868.733 2.926 2.926 0 0 1-1.109.215 2.272 2.272 0 0 1-1.521-.46 1.58 1.58 0 0 1-.402-.565 1.61 1.61 0 0 1-.124-.685 1.637 1.637 0 0 1 .526-1.265 2.202 2.202 0 0 1 1.521-.475h2.36v1.064Zm.356 3.81h1.748v-6.397a4.682 4.682 0 0 0-.497-2.315 2.953 2.953 0 0 0-1.507-1.265 7.276 7.276 0 0 0-2.559-.388h-2.104l-.91.072v1.912h3.483a1.689 1.689 0 0 1 1.445.483c.188.188.329.418.414.67.085.253.11.523.075.787v.187h-2.304a6.385 6.385 0 0 0-2.288.36 3.214 3.214 0 0 0-1.422 1.078 3.098 3.098 0 0 0-.512 1.825c-.014.63.143 1.252.455 1.797.298.5.739.896 1.265 1.136.609.27 1.269.403 1.934.388a3.918 3.918 0 0 0 1.82-.388 2.857 2.857 0 0 0 1.151-1.121c.132-.232.237-.478.313-.734v1.912Zm7.037 0V60.912h-3.554v1.71h1.336V74.77H255Z" fill="#fff"/></svg>