<!--?xml version="1.0" standalone="no"?-->
              <svg id="sw-js-blob-svg" viewBox="0 0 100 100" xmlns="http://www.w3.org/2000/svg" version="1.1">
                    <defs> 
                        <linearGradient id="sw-gradient" x1="0" x2="1" y1="1" y2="0">
                            <stop id="stop1" stop-color="rgba(248, 117, 55, 1)" offset="0%"></stop>
                            <stop id="stop2" stop-color="rgba(251, 168, 31, 1)" offset="100%"></stop>
                        </linearGradient>
                    </defs>
                <path fill="url(#sw-gradient)" d="M5.8,-15.5C7.6,-9,9.1,-7.6,12.3,-5.8C15.4,-4.1,20.3,-2,19.3,-0.6C18.3,0.9,11.5,1.8,8.7,4.3C6,6.7,7.3,10.8,6.5,16.9C5.7,22.9,2.8,31.1,-1.8,34.3C-6.5,37.5,-13.1,35.7,-18.4,32.3C-23.8,28.8,-28.1,23.7,-31.2,18.1C-34.3,12.4,-36.4,6.2,-37.7,-0.8C-39.1,-7.8,-39.8,-15.6,-34.4,-17.3C-29,-19.1,-17.5,-14.8,-10.8,-18.3C-4,-21.9,-2,-33.3,0,-33.3C2,-33.3,4,-21.9,5.8,-15.5Z" width="100%" height="100%" transform="translate(50 50)" stroke-width="0" style="transition: all 0.3s ease 0s;"></path>
              </svg>